<?xml version="1.0" encoding="UTF-8"?><svg id="Layer_2" xmlns="http://www.w3.org/2000/svg" xmlns:xlink="http://www.w3.org/1999/xlink" viewBox="0 0 251 60"><defs><style>.cls-1{fill:none;}.cls-2{clip-path:url(#clippath);}.cls-3{fill:#e3e7ea;}.cls-4{fill:#fff;}.cls-5{fill:#ecf4f9;}.cls-6{fill:#ff3600;}.cls-7{fill:#fdfdfe;}.cls-8{fill:#b24449;}.cls-9{fill:#712a1e;}.cls-10{fill:#632025;}</style><clipPath id="clippath"><rect class="cls-1" width="251" height="60"/></clipPath></defs><g id="Layer_1-2"><g class="cls-2"><g><path class="cls-5" d="m83.04,3.51c.1.22.26.38-.1.58-2.25,1.19-3.42,3.07-3.48,5.62-.01.55-.15.75-.75.57-.72-.21-1.43.1-2.13.27-.49.12-.19-.28-.31-.4.51-3.08,3.5-6.01,6.78-6.63Z"/><path class="cls-3" d="m90.98,4.1c-.22,0-.45.01-.57-.24.24-.03.44.02.57.24Z"/><path class="cls-3" d="m76.04,10.99c-.02.14-.11.22-.26.23.09-.08.17-.15.26-.23Z"/><path class="cls-4" d="m71.02,21.66h108.92c1.16,0,2.1.94,2.1,2.1v34.78c0,.69-.56,1.25-1.25,1.25h-110.64c-.68,0-1.23-.55-1.23-1.23V23.76c0-1.16.94-2.1,2.1-2.1Z"/><path class="cls-7" d="m90.98,4.1c1.32.67,2.14,1.85,2.98,2.99.72.98,1.42,1.97,1.95,3.07.07.58-.39.77-.76,1.03-1.54,1.08-3.19,1.97-4.95,2.66-2.66,1.04-5.34,2.02-8.23,2.24-.18-2.2-.72-4.37-.05-6.63.46-1.57,1.14-2.85,2.36-3.94.71-.64,1.77-.61,2.33-1.43,1.25-.3,2.52-.38,3.8-.22,0,0,0,0,0,0,.12.25.35.23.57.24Z"/><path class="cls-3" d="m97.05,11.5s-.03.06-.04.09-.04.06-.06.09h0c-.2.07-.19.25-.2.41-1.16.68-2.32,1.33-3.62,1.76-2.12.69-4.22,1.46-6.31,2.23-2.92,1.08-5.49,3.02-8.63,3.59-1.01.27-2.05.42-3.09.46-.39.01-.95.18-1.15-.23-.21-.43.26-.76.54-1.05.51-.52,1.07-1,1.61-1.5.91,0,1.82.05,2.72-.02.66-.05,1.27-.24.84-1.17-.38-.82-.4-1.75-.61-2.62q-.57-2.38-3.02-2.57c.08-.28.15-.56.23-.84.12.12-.18.52.31.4.7-.17,1.4-.48,2.13-.27.6.18.74-.02.75-.57.06-2.55,1.23-4.43,3.48-5.62.37-.19.21-.36.1-.58,2.5-.78,4.98-1.14,7.38.35,0,0,0,0,0,0-1.28-.16-2.54-.08-3.8.22-1.94-.19-3.16,1.04-4.2,2.34-2.1,2.61-1.85,5.7-1.55,8.78.07.76.22,1.25,1.11.87,2.89-.22,5.57-1.2,8.23-2.24,1.76-.68,3.4-1.57,4.95-2.66.36-.25.82-.45.76-1.03.3.23.45.61.84.76.1.04.17.09.23.15.01.01.02.03.03.04.01.02.02.03.03.05,0,.01.01.02.02.04.04.09.03.19-.01.3Z"/><path class="cls-10" d="m95.83,13.39c-1.85,1.48-4.1,2.06-6.27,2.79-3.07,1.03-5.81,2.69-8.64,4.19-.98.52-1.99,1.06-3.16.98-.05-.61.53-1.06.43-1.68,3.14-.57,5.7-2.51,8.63-3.59,2.09-.77,4.19-1.54,6.31-2.23,1.3-.42,2.46-1.08,3.62-1.76.05.68-.46.95-.9,1.3Z"/><path class="cls-7" d="m76.03,10.98q2.45.19,3.02,2.57c.21.87.23,1.79.61,2.62.43.92-.18,1.12-.84,1.16-.9.06-1.82.02-2.72.02-.31-1.03-.64-2.05-.67-3.13.02-.3.11-.61-.13-.86,0-.21,0-.43-.01-.64.24-.4.39-.82.34-1.3.05-.07.1-.14.16-.2.15,0,.23-.08.26-.23h0Z"/><path class="cls-5" d="m81.98,16.09c-.9.38-1.04-.11-1.12-.87-.3-3.08-.56-6.17,1.55-8.78,1.05-1.3,2.26-2.53,4.2-2.34-.55.82-1.61.79-2.33,1.43-1.23,1.1-1.9,2.37-2.36,3.94-.66,2.26-.13,4.42.05,6.63Z"/><path class="cls-9" d="m182.11.96c0-.82-.26-1.1-1.04-.89,0,.06,0,.14,0,.22,0-.08,0-.16,0-.22-.35-.02-.7-.05-1.05-.05-36.3,0-72.6,0-108.9,0-.45,0-.91.04-1.36.06-.21,0-.43,0-.64.01-.44.31-.22.77-.22,1.15-.01,10.32,0,20.65-.01,30.97,0,4.35,0,8.71,0,13.06,0,.59-.07,1.22.86.93.14,0,.29,0,.43,0,.31.02.63.07.94.07,35.74,0,71.49,0,107.23,0,.35,0,.7-.04,1.05-.06.15,0,.29,0,.44,0,.42.02.84.02,1.26.07.78.11,1.03-.18,1.03-.98-.02-14.78-.02-29.56,0-44.34Zm-57.68,38.98c-.99-.5-1.78-1.26-2.41-2.16-3.62-5.17-7.26-10.34-10.82-15.55-2.03-2.96-1.97-3-5.55-3-3.97,0-7.94-.03-11.91.02-2.55.03-4.87.79-6.54,2.84-2.84,3.48-1.46,8.42,2.73,10.04,1.3.5,2.65.74,4.02.76,3.02.05,6.04.02,9.07.02.23,0,.55.13.64-.18.04-.15-.12-.39-.24-.55-.77-1-1.56-1.98-2.32-2.99-.33-.44-.76-.43-1.22-.43-2.88,0-5.76,0-8.64,0h-1.06c1.14-1.39,2.28-2.54,3.13-3.88,1.3-2.03,2.99-2.76,5.37-2.48,1.84.21,3.72.06,5.58.03.55,0,.9.17,1.21.63,3.75,5.51,7.51,11.01,11.27,16.51.08.11.13.23.2.35-.27.34-.6.2-.89.2-7.45,0-14.9.05-22.35,0-5.08-.03-9.67-1.53-13.16-5.38-3.51-3.86-4.5-8.37-2.77-13.38-.05-.61.53-1.06.43-1.68-1.01.27-2.05.42-3.09.46-.39.01-.95.18-1.15-.23-.21-.43.26-.76.54-1.05.51-.52,1.07-1,1.61-1.5-.31-1.03-.64-2.05-.67-3.13-.2-.26-.18-.56-.13-.86,0-.21,0-.43-.01-.64-.04-.47-.07-.95.34-1.3.05-.07.1-.14.16-.2.09-.08.17-.15.26-.23h0c.08-.28.15-.56.23-.84.51-3.08,3.5-6.01,6.78-6.63,2.5-.78,4.98-1.14,7.38.35.23-.03.44.02.57.24,1.32.68,2.14,1.85,2.98,2.99.72.98,1.42,1.97,1.95,3.07.3.23.45.61.84.76.1.04.17.09.23.15.01.01.02.03.03.04.01.02.02.03.03.05,0,.01.01.02.02.04.04.09.03.19-.01.3-.01.03-.03.06-.04.09s-.04.06-.06.09c.01,0,.02.02.03.03.02.02.05.04.07.05.02.01.05.03.07.04h0s.05.02.07.03c.28.1.58.02.87.02,5.16,0,10.33.04,15.49-.02.96-.01,1.47.35,1.95,1.06,3.79,5.61,7.61,11.2,11.4,16.81.47.7.69.87,1.26.05,4.08-5.79,8.21-11.55,12.31-17.33.27-.39.51-.58.99-.58,11.03.01,22.07.01,33.1.02.06,0,.13.04.33.1-.48.64-.92,1.24-1.38,1.84-1.13,1.48-2.3,2.92-3.39,4.43-.52.72-1.08,1.02-2.01,1.02-7.13-.04-14.27-.01-21.4-.04-.71,0-1.12.21-1.53.81-4.07,6.02-8.15,12.02-12.48,17.86-2.01,2.7-5.43,3.49-8.28,2.05Zm51.3-8.09c-.42,5.47-4.21,7.35-8.26,8.04-1.21.2-2.44.25-3.67.25-8.36,0-16.72,0-25.08-.01-.33,0-.79.18-.97-.14-.19-.34.23-.61.41-.89,1.19-1.86,2.6-3.57,3.91-5.35.46-.62.98-.85,1.78-.84,6.5.04,13,.03,19.49.02.7,0,1.4-.06,2.1-.15,1.21-.16,1.75-.72,1.79-1.8.04-1.21-.41-1.76-1.65-2.05-.59-.14-1.18-.14-1.78-.14-5.27,0-10.54,0-15.81-.02-.83,0-1.66-.01-2.54-.35,1.12-1.67,2.22-3.29,3.31-4.91.22-.33.55-.39.92-.38,5.97.08,11.94-.21,17.9.18,2.3.15,4.5.77,6.23,2.47,1.72,1.69,2.1,3.8,1.93,6.1Z"/><path class="cls-6" d="m175.73,31.85c-.42,5.47-4.21,7.35-8.26,8.04-1.21.2-2.44.25-3.67.25-8.36,0-16.72,0-25.08-.01-.33,0-.79.18-.97-.14-.19-.34.23-.61.41-.89,1.19-1.86,2.6-3.57,3.91-5.35.46-.62.98-.85,1.78-.84,6.5.04,13,.03,19.49.02.7,0,1.4-.06,2.1-.15,1.21-.16,1.75-.72,1.79-1.8.04-1.21-.41-1.76-1.65-2.05-.59-.14-1.18-.14-1.78-.14-5.27,0-10.54,0-15.81-.02-.83,0-1.66-.01-2.54-.35,1.12-1.67,2.22-3.29,3.31-4.91.22-.33.55-.39.92-.38,5.97.08,11.94-.21,17.9.18,2.3.15,4.5.77,6.23,2.47,1.72,1.69,2.1,3.8,1.93,6.1Z"/><path class="cls-8" d="m174.89,11.97c-.48.64-.92,1.24-1.38,1.84-1.13,1.48-2.3,2.92-3.39,4.43-.52.72-1.08,1.02-2.01,1.02-7.13-.04-14.27-.01-21.4-.04-.71,0-1.12.21-1.53.81-4.07,6.02-8.15,12.02-12.48,17.86-2.01,2.7-5.43,3.49-8.28,2.05-.99-.5-1.78-1.26-2.41-2.16-3.62-5.17-7.26-10.34-10.82-15.55-2.03-2.96-1.97-3-5.55-3-3.97,0-7.94-.03-11.91.02-2.55.03-4.87.79-6.54,2.84-2.84,3.48-1.46,8.42,2.73,10.04,1.3.5,2.65.74,4.02.76,3.02.05,6.04.02,9.07.02.23,0,.55.13.64-.18.04-.15-.12-.39-.24-.55-.77-1-1.56-1.98-2.32-2.99-.33-.44-.76-.43-1.22-.43-2.88,0-5.76,0-8.64,0h-1.06c1.14-1.39,2.28-2.54,3.13-3.88,1.3-2.03,2.99-2.76,5.37-2.48,1.84.21,3.72.06,5.58.03.55,0,.9.17,1.21.63,3.75,5.51,7.51,11.01,11.27,16.51.08.11.13.23.2.35-.27.34-.6.2-.89.2-7.45,0-14.9.05-22.35,0-5.08-.03-9.67-1.53-13.16-5.38-3.51-3.86-4.5-8.37-2.77-13.38,1.18.07,2.19-.46,3.16-.98,2.83-1.5,5.58-3.16,8.64-4.19,2.17-.73,4.43-1.31,6.27-2.79.44-.35.95-.62.9-1.3.01-.17,0-.34.2-.41.01,0,.02.02.03.03.02.02.05.04.07.05.02.01.05.03.07.04h0s.05.02.07.03c.28.1.58.02.87.02,5.16,0,10.33.04,15.49-.02.96-.01,1.47.35,1.95,1.06,3.79,5.61,7.61,11.2,11.4,16.81.47.7.69.87,1.26.05,4.08-5.79,8.21-11.55,12.31-17.33.27-.39.51-.58.99-.58,11.03.01,22.07.01,33.1.02.06,0,.13.04.33.1Z"/><path class="cls-8" d="m145.44,28.4c1.12-1.67,2.22-3.29,3.31-4.91.22-.33.55-.39.92-.38,5.97.08,11.94-.21,17.9.18,2.3.15,4.5.77,6.23,2.47,1.72,1.69,2.1,3.8,1.93,6.1-.42,5.47-4.21,7.35-8.26,8.04-1.21.2-2.44.25-3.67.25-8.36,0-16.72,0-25.08-.01-.33,0-.79.18-.97-.14-.19-.34.23-.61.41-.89,1.19-1.86,2.6-3.57,3.91-5.35.45-.62.98-.85,1.78-.84,6.5.04,13,.03,19.49.02.7,0,1.4-.06,2.1-.15,1.21-.16,1.75-.72,1.79-1.8.04-1.21-.41-1.76-1.65-2.05-.59-.14-1.18-.14-1.78-.14-5.27,0-10.54,0-15.81-.02-.83,0-1.66-.01-2.54-.35Z"/><path class="cls-9" d="m181.37,59.98c-.88.02-1.76.01-2.64.01-36.2,0-72.39,0-108.59,0-.18,0-.35-.01-.53,0-.52.05-.76-.14-.76-.71,0-.6.28-.68.78-.68,2.78.02,5.55,0,8.33,0,15.85,0,31.7,0,47.55,0,18.48,0,36.97,0,55.45,0,.36,0,.8-.2,1.07.22.32.5-.05,1.13-.67,1.14Z"/><g><path class="cls-9" d="m75.02,52.37h-2.29v1.55h2.68v.96h-3.87v-5.78h3.87v.96h-2.68v1.38h2.29v.93Z"/><path class="cls-9" d="m80.82,54.88h-1.19l-2.32-3.8v3.8h-1.19v-5.78h1.19l2.32,3.81v-3.81h1.19v5.78Z"/><path class="cls-9" d="m86.43,54.14c-.21.26-.52.46-.91.6-.39.14-.83.21-1.3.21-.5,0-.94-.11-1.32-.33s-.67-.54-.87-.95c-.21-.42-.31-.9-.32-1.46v-.39c0-.58.1-1.08.29-1.5.19-.42.47-.74.84-.97.37-.22.8-.34,1.29-.34.69,0,1.22.16,1.61.49.39.33.62.8.69,1.43h-1.16c-.05-.33-.17-.57-.35-.73-.18-.15-.43-.23-.75-.23-.4,0-.71.15-.92.46-.21.3-.32.76-.32,1.36v.37c0,.61.12,1.06.35,1.37s.57.46,1.01.46.77-.1.96-.29v-1h-1.08v-.88h2.27v2.31Z"/><path class="cls-9" d="m88.66,54.88h-1.19v-5.78h1.19v5.78Z"/><path class="cls-9" d="m94.46,54.88h-1.19l-2.32-3.8v3.8h-1.19v-5.78h1.19l2.32,3.81v-3.81h1.19v5.78Z"/><path class="cls-9" d="m98.98,52.37h-2.29v1.55h2.68v.96h-3.87v-5.78h3.87v.96h-2.68v1.38h2.29v.93Z"/><path class="cls-9" d="m103.55,52.37h-2.29v1.55h2.68v.96h-3.87v-5.78h3.87v.96h-2.68v1.38h2.29v.93Z"/><path class="cls-9" d="m106.79,52.76h-.95v2.12h-1.19v-5.78h2.15c.68,0,1.21.15,1.58.46.37.3.56.73.56,1.29,0,.39-.09.72-.26.99-.17.26-.43.47-.78.63l1.25,2.36v.06h-1.28l-1.08-2.12Zm-.95-.96h.96c.3,0,.53-.08.69-.23.16-.15.25-.36.25-.63s-.08-.49-.23-.64c-.15-.16-.39-.23-.71-.23h-.96v1.73Z"/><path class="cls-9" d="m112.83,53.36c0-.22-.08-.4-.24-.52-.16-.12-.44-.25-.86-.38-.41-.13-.74-.27-.98-.39-.66-.35-.98-.83-.98-1.43,0-.31.09-.59.26-.84.18-.24.43-.44.76-.57.33-.14.7-.21,1.11-.21s.78.07,1.1.22c.32.15.57.36.75.63.18.27.27.58.27.93h-1.19c0-.26-.08-.47-.25-.62s-.4-.22-.7-.22-.52.06-.68.18c-.16.12-.24.29-.24.49,0,.19.09.35.28.47.19.13.47.25.84.36.68.2,1.17.46,1.48.76s.46.68.46,1.13c0,.5-.19.89-.57,1.18-.38.28-.89.43-1.53.43-.44,0-.85-.08-1.21-.24s-.64-.39-.84-.67c-.19-.28-.29-.61-.29-.98h1.19c0,.64.38.96,1.14.96.28,0,.5-.06.66-.17s.24-.28.24-.48Z"/><path class="cls-9" d="m116.62,53.32c0-.27.07-.51.22-.74.15-.23.42-.48.82-.76-.17-.23-.31-.45-.4-.65-.1-.2-.15-.41-.15-.63,0-.45.14-.82.43-1.1.28-.28.67-.42,1.15-.42.43,0,.79.13,1.06.38.28.26.41.58.41.96,0,.46-.23.87-.7,1.22l-.44.32,1,1.16c.16-.31.23-.65.23-1.02h.98c0,.75-.17,1.36-.52,1.83l.87,1h-1.3l-.3-.34c-.43.28-.92.42-1.47.42s-1.03-.15-1.37-.45c-.34-.3-.52-.7-.52-1.18Zm1.94.71c.28,0,.54-.08.78-.23l-1.14-1.31-.08.06c-.24.2-.35.44-.35.71,0,.23.07.42.22.56.15.14.34.22.57.22Zm-.42-3.51c0,.2.12.45.35.75l.31-.2c.16-.1.26-.2.32-.29s.09-.21.09-.34-.05-.25-.15-.35c-.1-.1-.22-.15-.38-.15-.16,0-.3.05-.39.16-.1.11-.15.25-.15.42Z"/><path class="cls-9" d="m128.75,52.95c-.05.62-.27,1.11-.69,1.47-.41.36-.96.54-1.64.54-.74,0-1.32-.25-1.75-.75-.42-.5-.64-1.18-.64-2.05v-.35c0-.56.1-1.05.29-1.47.2-.42.48-.75.84-.97.36-.23.79-.34,1.27-.34.67,0,1.2.18,1.61.54.41.36.64.86.71,1.5h-1.19c-.03-.37-.13-.64-.31-.81-.18-.17-.45-.25-.82-.25-.4,0-.69.14-.89.43-.2.28-.3.73-.3,1.32v.44c0,.62.09,1.08.28,1.37.19.29.49.43.89.43.37,0,.64-.08.82-.25.18-.17.29-.43.31-.78h1.19Z"/><path class="cls-9" d="m134.28,52.12c0,.57-.1,1.07-.3,1.5-.2.43-.49.76-.86.99-.37.23-.8.35-1.29.35s-.91-.12-1.28-.35c-.38-.23-.67-.56-.87-.99-.21-.43-.31-.92-.31-1.47v-.29c0-.57.1-1.07.31-1.5.21-.43.49-.76.87-1,.37-.23.8-.35,1.28-.35s.91.12,1.28.35c.37.23.66.56.87,1,.21.43.31.93.31,1.5v.26Zm-1.21-.26c0-.61-.11-1.07-.33-1.38-.22-.31-.53-.47-.93-.47s-.71.16-.92.47c-.22.31-.33.77-.33,1.37v.28c0,.59.11,1.05.33,1.37.22.33.53.49.94.49s.71-.16.92-.47.32-.77.33-1.37v-.28Z"/><path class="cls-9" d="m139.84,54.88h-1.19l-2.32-3.8v3.8h-1.19v-5.78h1.19l2.32,3.81v-3.81h1.19v5.78Z"/><path class="cls-9" d="m143.88,53.36c0-.22-.08-.4-.24-.52-.16-.12-.44-.25-.86-.38-.41-.13-.74-.27-.98-.39-.66-.35-.98-.83-.98-1.43,0-.31.09-.59.26-.84.18-.24.43-.44.76-.57.33-.14.7-.21,1.11-.21s.78.07,1.1.22c.32.15.57.36.75.63.18.27.27.58.27.93h-1.19c0-.26-.08-.47-.25-.62s-.4-.22-.7-.22-.52.06-.68.18c-.16.12-.24.29-.24.49,0,.19.09.35.28.47.19.13.47.25.84.36.68.2,1.17.46,1.48.76s.46.68.46,1.13c0,.5-.19.89-.57,1.18-.38.28-.89.43-1.53.43-.44,0-.85-.08-1.21-.24s-.64-.39-.84-.67c-.19-.28-.29-.61-.29-.98h1.19c0,.64.38.96,1.14.96.28,0,.5-.06.66-.17s.24-.28.24-.48Z"/><path class="cls-9" d="m150.25,49.1v3.81c0,.63-.2,1.13-.59,1.5-.4.37-.94.55-1.62.55s-1.21-.18-1.61-.54-.6-.85-.61-1.47v-3.85h1.19v3.81c0,.38.09.65.27.83.18.17.43.26.75.26.67,0,1.01-.35,1.02-1.06v-3.85h1.19Z"/><path class="cls-9" d="m152.42,53.92h2.53v.96h-3.72v-5.78h1.19v4.82Z"/><path class="cls-9" d="m159.17,50.06h-1.77v4.81h-1.19v-4.81h-1.75v-.96h4.71v.96Z"/><path class="cls-9" d="m162.63,53.68h-2.09l-.4,1.19h-1.27l2.15-5.78h1.1l2.16,5.78h-1.27l-.4-1.19Zm-1.77-.96h1.44l-.73-2.16-.72,2.16Z"/><path class="cls-9" d="m169.54,54.88h-1.19l-2.32-3.8v3.8h-1.19v-5.78h1.19l2.32,3.81v-3.81h1.19v5.78Z"/><path class="cls-9" d="m174.93,50.06h-1.77v4.81h-1.19v-4.81h-1.75v-.96h4.71v.96Z"/><path class="cls-9" d="m178.54,53.36c0-.22-.08-.4-.24-.52-.16-.12-.44-.25-.86-.38-.41-.13-.74-.27-.98-.39-.66-.35-.98-.83-.98-1.43,0-.31.09-.59.26-.84.18-.24.43-.44.76-.57.33-.14.7-.21,1.11-.21s.78.07,1.1.22c.32.15.57.36.75.63.18.27.27.58.27.93h-1.19c0-.26-.08-.47-.25-.62s-.4-.22-.7-.22-.52.06-.68.18c-.16.12-.24.29-.24.49,0,.19.09.35.28.47.19.13.47.25.84.36.68.2,1.17.46,1.48.76s.46.68.46,1.13c0,.5-.19.89-.57,1.18-.38.28-.89.43-1.53.43-.44,0-.85-.08-1.21-.24s-.64-.39-.84-.67c-.19-.28-.29-.61-.29-.98h1.19c0,.64.38.96,1.14.96.28,0,.5-.06.66-.17s.24-.28.24-.48Z"/></g></g></g></g></svg>